<svg width="17" height="16" viewBox="0 0 17 16" fill="none" xmlns="http://www.w3.org/2000/svg">
<path fill-rule="evenodd" clip-rule="evenodd" d="M14.7592 0.100098H2.24101C1.47253 0.100098 0.850098 0.72253 0.850098 1.49101V14.0092C0.850098 14.7777 1.47253 15.4001 2.24101 15.4001H9.19555V9.14101H7.10919V7.05464H9.19555V5.93427C9.19555 3.81313 10.229 2.88192 11.992 2.88192C12.8363 2.88192 13.2827 2.94451 13.4942 2.97302V4.96828H12.2917C11.5434 4.96828 11.2819 5.3633 11.2819 6.16307V7.05464H13.4754L13.1777 9.14101H11.2819V15.4001H14.7592C15.5277 15.4001 16.1501 14.7777 16.1501 14.0092V1.49101C16.1501 0.72253 15.527 0.100098 14.7592 0.100098Z" fill="#2765DF"/>
</svg>
